<svg xmlns="http://www.w3.org/2000/svg" width="32" height="32" viewBox="0 0 32 32" fill="none">
<path fill-rule="evenodd" clip-rule="evenodd" d="M0 16C0 7.16326 7.1633 -6.4e-05 16 -6.4e-05C24.8366 -6.4e-05 31.9999 7.16326 31.9999 16C31.9999 24.8366 24.8366 31.9999 16 31.9999C7.1633 31.9999 0 24.8366 0 16Z" fill="#C3C3C3"/>
<path fill-rule="evenodd" clip-rule="evenodd" d="M11.725 13.4272H8.68317V22.9999H11.725V13.4272ZM11.9388 10.4714C11.9286 9.71475 11.2656 8.99988 10.2234 8.99988C9.19047 8.99988 8.49994 9.71475 8.49994 10.6518C8.49994 11.5694 9.1628 12.3036 10.1866 12.3036H10.2049C11.2656 12.3036 11.949 11.5694 11.9388 10.6518V10.4714ZM23.4999 17.4431C23.4999 14.6198 22.0023 13.3854 19.9516 13.3854C18.1393 13.205 17.3451 14.1612 16.9073 14.8183L16.9277 14.8373V13.5846H13.5781C13.5781 13.5846 13.6187 14.3936 13.5781 22.9297H16.9277V17.588C16.9277 17.2983 16.9583 17.018 17.0397 16.8056C17.2839 16.2355 17.8339 15.6464 18.7604 15.6464C19.9719 15.6464 20.4581 16.5255 20.4581 17.8102V22.9297H23.4999V17.4431Z" fill="white"/>
</svg>